<mxfile host="app.diagrams.net" modified="2024-03-23T12:42:45.789Z" agent="Mozilla/5.0 (Windows NT 10.0; Win64; x64) AppleWebKit/537.36 (KHTML, like Gecko) Chrome/122.0.0.0 Safari/537.36" etag="HzfbdwXi3Kyc6fBNZFGW" version="24.0.8" type="device">
  <diagram id="C5RBs43oDa-KdzZeNtuy" name="Page-1">
    <mxGraphModel dx="1434" dy="738" grid="1" gridSize="10" guides="1" tooltips="1" connect="1" arrows="1" fold="1" page="1" pageScale="1" pageWidth="827" pageHeight="1169" math="0" shadow="0">
      <root>
        <mxCell id="WIyWlLk6GJQsqaUBKTNV-0" />
        <mxCell id="WIyWlLk6GJQsqaUBKTNV-1" parent="WIyWlLk6GJQsqaUBKTNV-0" />
        <mxCell id="I7GfstQqkbH-iSHzdjI1-4" style="edgeStyle=orthogonalEdgeStyle;rounded=0;orthogonalLoop=1;jettySize=auto;html=1;entryX=0.5;entryY=0;entryDx=0;entryDy=0;" edge="1" parent="WIyWlLk6GJQsqaUBKTNV-1" target="I7GfstQqkbH-iSHzdjI1-3">
          <mxGeometry relative="1" as="geometry">
            <mxPoint x="408" y="300" as="sourcePoint" />
          </mxGeometry>
        </mxCell>
        <mxCell id="I7GfstQqkbH-iSHzdjI1-29" value="" style="edgeStyle=orthogonalEdgeStyle;rounded=0;orthogonalLoop=1;jettySize=auto;html=1;" edge="1" parent="WIyWlLk6GJQsqaUBKTNV-1" source="WIyWlLk6GJQsqaUBKTNV-3" target="I7GfstQqkbH-iSHzdjI1-28">
          <mxGeometry relative="1" as="geometry" />
        </mxCell>
        <mxCell id="WIyWlLk6GJQsqaUBKTNV-3" value="&lt;div&gt;&lt;span style=&quot;background-color: initial;&quot;&gt;makePepero() 실행&lt;/span&gt;&lt;br&gt;&lt;/div&gt;" style="rounded=1;whiteSpace=wrap;html=1;fontSize=12;glass=0;strokeWidth=1;shadow=0;" parent="WIyWlLk6GJQsqaUBKTNV-1" vertex="1">
          <mxGeometry x="348" y="180" width="120" height="40" as="geometry" />
        </mxCell>
        <mxCell id="I7GfstQqkbH-iSHzdjI1-2" style="edgeStyle=orthogonalEdgeStyle;rounded=0;orthogonalLoop=1;jettySize=auto;html=1;exitX=0.5;exitY=1;exitDx=0;exitDy=0;entryX=0.5;entryY=0;entryDx=0;entryDy=0;" edge="1" parent="WIyWlLk6GJQsqaUBKTNV-1" source="I7GfstQqkbH-iSHzdjI1-1" target="WIyWlLk6GJQsqaUBKTNV-3">
          <mxGeometry relative="1" as="geometry" />
        </mxCell>
        <mxCell id="I7GfstQqkbH-iSHzdjI1-1" value="매개변수&lt;div&gt;길이, 몸통, 토핑, 막대길이 입력&lt;/div&gt;" style="shape=parallelogram;perimeter=parallelogramPerimeter;whiteSpace=wrap;html=1;fixedSize=1;" vertex="1" parent="WIyWlLk6GJQsqaUBKTNV-1">
          <mxGeometry x="298" y="80" width="220" height="60" as="geometry" />
        </mxCell>
        <mxCell id="I7GfstQqkbH-iSHzdjI1-10" value="" style="edgeStyle=orthogonalEdgeStyle;rounded=0;orthogonalLoop=1;jettySize=auto;html=1;" edge="1" parent="WIyWlLk6GJQsqaUBKTNV-1" source="I7GfstQqkbH-iSHzdjI1-3" target="I7GfstQqkbH-iSHzdjI1-8">
          <mxGeometry relative="1" as="geometry" />
        </mxCell>
        <mxCell id="I7GfstQqkbH-iSHzdjI1-3" value="_(파라미터) 가 길이보다&amp;nbsp;&lt;div&gt;같거나 작은가?&lt;/div&gt;" style="rhombus;whiteSpace=wrap;html=1;" vertex="1" parent="WIyWlLk6GJQsqaUBKTNV-1">
          <mxGeometry x="289.25" y="340" width="237.5" height="80" as="geometry" />
        </mxCell>
        <mxCell id="I7GfstQqkbH-iSHzdjI1-14" value="" style="edgeStyle=orthogonalEdgeStyle;rounded=0;orthogonalLoop=1;jettySize=auto;html=1;" edge="1" parent="WIyWlLk6GJQsqaUBKTNV-1" source="I7GfstQqkbH-iSHzdjI1-8" target="I7GfstQqkbH-iSHzdjI1-13">
          <mxGeometry relative="1" as="geometry" />
        </mxCell>
        <mxCell id="I7GfstQqkbH-iSHzdjI1-8" value="&quot;(토핑)(몸통)(토핑)&quot;&lt;div&gt;출력&lt;/div&gt;" style="shape=parallelogram;perimeter=parallelogramPerimeter;whiteSpace=wrap;html=1;fixedSize=1;" vertex="1" parent="WIyWlLk6GJQsqaUBKTNV-1">
          <mxGeometry x="328" y="460" width="160" height="40" as="geometry" />
        </mxCell>
        <mxCell id="I7GfstQqkbH-iSHzdjI1-13" value="_(파라미터)에 1을 더한다." style="whiteSpace=wrap;html=1;" vertex="1" parent="WIyWlLk6GJQsqaUBKTNV-1">
          <mxGeometry x="328" y="540" width="160" height="60" as="geometry" />
        </mxCell>
        <mxCell id="I7GfstQqkbH-iSHzdjI1-17" value="YES" style="text;html=1;align=center;verticalAlign=middle;whiteSpace=wrap;rounded=0;fontStyle=1" vertex="1" parent="WIyWlLk6GJQsqaUBKTNV-1">
          <mxGeometry x="348" y="420" width="60" height="30" as="geometry" />
        </mxCell>
        <mxCell id="I7GfstQqkbH-iSHzdjI1-26" value="" style="endArrow=none;html=1;rounded=0;exitX=0;exitY=0.5;exitDx=0;exitDy=0;" edge="1" parent="WIyWlLk6GJQsqaUBKTNV-1" source="I7GfstQqkbH-iSHzdjI1-13">
          <mxGeometry width="50" height="50" relative="1" as="geometry">
            <mxPoint x="484" y="530" as="sourcePoint" />
            <mxPoint x="234" y="320" as="targetPoint" />
            <Array as="points">
              <mxPoint x="234" y="570" />
            </Array>
          </mxGeometry>
        </mxCell>
        <mxCell id="I7GfstQqkbH-iSHzdjI1-27" value="" style="endArrow=classic;html=1;rounded=0;" edge="1" parent="WIyWlLk6GJQsqaUBKTNV-1">
          <mxGeometry width="50" height="50" relative="1" as="geometry">
            <mxPoint x="234" y="320" as="sourcePoint" />
            <mxPoint x="404" y="320" as="targetPoint" />
          </mxGeometry>
        </mxCell>
        <mxCell id="I7GfstQqkbH-iSHzdjI1-28" value="_(파라미터) = 1" style="shape=hexagon;perimeter=hexagonPerimeter2;whiteSpace=wrap;html=1;fixedSize=1;" vertex="1" parent="WIyWlLk6GJQsqaUBKTNV-1">
          <mxGeometry x="348" y="260" width="120" height="40" as="geometry" />
        </mxCell>
        <mxCell id="I7GfstQqkbH-iSHzdjI1-37" value="" style="edgeStyle=orthogonalEdgeStyle;rounded=0;orthogonalLoop=1;jettySize=auto;html=1;" edge="1" parent="WIyWlLk6GJQsqaUBKTNV-1" source="I7GfstQqkbH-iSHzdjI1-30">
          <mxGeometry relative="1" as="geometry">
            <mxPoint x="408.0999999999999" y="740.0336842105262" as="targetPoint" />
          </mxGeometry>
        </mxCell>
        <mxCell id="I7GfstQqkbH-iSHzdjI1-30" value="_(파라미터) = 1" style="shape=hexagon;perimeter=hexagonPerimeter2;whiteSpace=wrap;html=1;fixedSize=1;" vertex="1" parent="WIyWlLk6GJQsqaUBKTNV-1">
          <mxGeometry x="348" y="660" width="120" height="40" as="geometry" />
        </mxCell>
        <mxCell id="I7GfstQqkbH-iSHzdjI1-34" value="" style="endArrow=classic;html=1;rounded=0;entryX=1;entryY=0.5;entryDx=0;entryDy=0;" edge="1" parent="WIyWlLk6GJQsqaUBKTNV-1" target="I7GfstQqkbH-iSHzdjI1-30">
          <mxGeometry width="50" height="50" relative="1" as="geometry">
            <mxPoint x="594" y="680" as="sourcePoint" />
            <mxPoint x="534" y="600" as="targetPoint" />
          </mxGeometry>
        </mxCell>
        <mxCell id="I7GfstQqkbH-iSHzdjI1-35" value="" style="endArrow=none;html=1;rounded=0;entryX=1;entryY=0.5;entryDx=0;entryDy=0;" edge="1" parent="WIyWlLk6GJQsqaUBKTNV-1" target="I7GfstQqkbH-iSHzdjI1-3">
          <mxGeometry width="50" height="50" relative="1" as="geometry">
            <mxPoint x="594" y="680" as="sourcePoint" />
            <mxPoint x="534" y="600" as="targetPoint" />
            <Array as="points">
              <mxPoint x="594" y="380" />
            </Array>
          </mxGeometry>
        </mxCell>
        <mxCell id="I7GfstQqkbH-iSHzdjI1-38" value="" style="edgeStyle=orthogonalEdgeStyle;rounded=0;orthogonalLoop=1;jettySize=auto;html=1;" edge="1" parent="WIyWlLk6GJQsqaUBKTNV-1" source="I7GfstQqkbH-iSHzdjI1-39" target="I7GfstQqkbH-iSHzdjI1-41">
          <mxGeometry relative="1" as="geometry" />
        </mxCell>
        <mxCell id="I7GfstQqkbH-iSHzdjI1-39" value="_(파라미터) 가 막대길이보다&amp;nbsp;&lt;div&gt;같거나 작은가?&lt;/div&gt;" style="rhombus;whiteSpace=wrap;html=1;" vertex="1" parent="WIyWlLk6GJQsqaUBKTNV-1">
          <mxGeometry x="289.25" y="740" width="237.5" height="80" as="geometry" />
        </mxCell>
        <mxCell id="I7GfstQqkbH-iSHzdjI1-40" value="" style="edgeStyle=orthogonalEdgeStyle;rounded=0;orthogonalLoop=1;jettySize=auto;html=1;" edge="1" parent="WIyWlLk6GJQsqaUBKTNV-1" source="I7GfstQqkbH-iSHzdjI1-41" target="I7GfstQqkbH-iSHzdjI1-42">
          <mxGeometry relative="1" as="geometry" />
        </mxCell>
        <mxCell id="I7GfstQqkbH-iSHzdjI1-41" value="&quot; | | &quot;&lt;div&gt;출력&lt;/div&gt;" style="shape=parallelogram;perimeter=parallelogramPerimeter;whiteSpace=wrap;html=1;fixedSize=1;" vertex="1" parent="WIyWlLk6GJQsqaUBKTNV-1">
          <mxGeometry x="328" y="860" width="160" height="40" as="geometry" />
        </mxCell>
        <mxCell id="I7GfstQqkbH-iSHzdjI1-42" value="_(파라미터)에 1을 더한다." style="whiteSpace=wrap;html=1;" vertex="1" parent="WIyWlLk6GJQsqaUBKTNV-1">
          <mxGeometry x="328" y="940" width="160" height="60" as="geometry" />
        </mxCell>
        <mxCell id="I7GfstQqkbH-iSHzdjI1-43" value="YES" style="text;html=1;align=center;verticalAlign=middle;whiteSpace=wrap;rounded=0;fontStyle=1" vertex="1" parent="WIyWlLk6GJQsqaUBKTNV-1">
          <mxGeometry x="348" y="820" width="60" height="30" as="geometry" />
        </mxCell>
        <mxCell id="I7GfstQqkbH-iSHzdjI1-44" value="" style="endArrow=none;html=1;rounded=0;exitX=0;exitY=0.5;exitDx=0;exitDy=0;" edge="1" parent="WIyWlLk6GJQsqaUBKTNV-1" source="I7GfstQqkbH-iSHzdjI1-42">
          <mxGeometry width="50" height="50" relative="1" as="geometry">
            <mxPoint x="484" y="930" as="sourcePoint" />
            <mxPoint x="234" y="720" as="targetPoint" />
            <Array as="points">
              <mxPoint x="234" y="970" />
            </Array>
          </mxGeometry>
        </mxCell>
        <mxCell id="I7GfstQqkbH-iSHzdjI1-45" value="" style="endArrow=classic;html=1;rounded=0;" edge="1" parent="WIyWlLk6GJQsqaUBKTNV-1">
          <mxGeometry width="50" height="50" relative="1" as="geometry">
            <mxPoint x="234" y="720" as="sourcePoint" />
            <mxPoint x="404" y="720" as="targetPoint" />
          </mxGeometry>
        </mxCell>
        <mxCell id="I7GfstQqkbH-iSHzdjI1-49" value="&lt;div&gt;&lt;span style=&quot;background-color: initial;&quot;&gt;종료&lt;/span&gt;&lt;br&gt;&lt;/div&gt;" style="rounded=1;whiteSpace=wrap;html=1;fontSize=12;glass=0;strokeWidth=1;shadow=0;" vertex="1" parent="WIyWlLk6GJQsqaUBKTNV-1">
          <mxGeometry x="348" y="1040" width="120" height="40" as="geometry" />
        </mxCell>
        <mxCell id="I7GfstQqkbH-iSHzdjI1-51" value="" style="endArrow=none;html=1;rounded=0;entryX=1;entryY=0.5;entryDx=0;entryDy=0;" edge="1" parent="WIyWlLk6GJQsqaUBKTNV-1">
          <mxGeometry width="50" height="50" relative="1" as="geometry">
            <mxPoint x="594" y="1060" as="sourcePoint" />
            <mxPoint x="526.75" y="780" as="targetPoint" />
            <Array as="points">
              <mxPoint x="593.75" y="780" />
            </Array>
          </mxGeometry>
        </mxCell>
        <mxCell id="I7GfstQqkbH-iSHzdjI1-52" value="" style="endArrow=classic;html=1;rounded=0;entryX=1;entryY=0.5;entryDx=0;entryDy=0;" edge="1" parent="WIyWlLk6GJQsqaUBKTNV-1">
          <mxGeometry width="50" height="50" relative="1" as="geometry">
            <mxPoint x="594" y="1060.5" as="sourcePoint" />
            <mxPoint x="468" y="1060.5" as="targetPoint" />
          </mxGeometry>
        </mxCell>
      </root>
    </mxGraphModel>
  </diagram>
</mxfile>
